<?xml version="1.0" encoding="UTF-8"?>
<svg version="1.1" xmlns="http://www.w3.org/2000/svg" width="41" height="39">
<path d="M0 0 C1.06795656 5.57710648 0.82622671 10.39436958 0 16 C0.64066406 15.57847656 1.28132813 15.15695312 1.94140625 14.72265625 C11.16449572 8.88090808 11.16449572 8.88090808 17 9 C18.9375 9.9375 18.9375 9.9375 20 12 C21.23547004 19.55009467 18.12342441 25.72958575 14 32 C13.01 32.33 12.02 32.66 11 33 C10.34 30.36 9.68 27.72 9 25 C7.06172464 26.76999098 5.12435656 28.54095761 3.1875 30.3125 C2.36668945 31.06176758 2.36668945 31.06176758 1.52929688 31.82617188 C-1.67481424 34.74969452 -1.67481424 34.74969452 -4.69921875 37.85546875 C-6 39 -6 39 -9 39 C-9 34.71 -9 30.42 -9 26 C-13.20013757 29.31341536 -13.20013757 29.31341536 -16.6875 33.3125 C-17.120625 33.869375 -17.55375 34.42625 -18 35 C-18.99 35 -19.98 35 -21 35 C-20.59362997 24.43437912 -14.65150598 15.64347973 -9 7 C-9.66 6.67 -10.32 6.34 -11 6 C-11 5.01 -11 4.02 -11 3 C-7.33513904 0.08966924 -4.60625394 -0.32136655 0 0 Z " fill="#FFFFFF" transform="translate(21,0)"/>
</svg>
