<?xml version="1.0" encoding="UTF-8"?>
<svg id="Layer_2" data-name="Layer 2" xmlns="http://www.w3.org/2000/svg" viewBox="0 0 1475.97 317.59">
  <defs>
    <style>
      .cls-1 {
        fill-rule: evenodd;
        stroke: #000;
        stroke-miterlimit: 10;
      }
    </style>
  </defs>
  <g id="Layer_1-2" data-name="Layer 1">
    <path class="cls-1" d="M1473.59,172.75l-145.14,142.01c-3.91,3.84-10.51,1.08-10.55-4.4l-.76-132.82c-.03-5.47-6.6-8.23-10.54-4.43l-146.44,141.71c-3.94,3.81-10.53,1.02-10.53-4.47v-142.04c0-3.43-2.78-6.21-6.21-6.21h-15.34c-5.48,0-8.28-6.59-4.47-10.53L1258.73,12.03c3.88-4.01,10.67-1.26,10.67,4.32v131.34c0,5.45,6.52,8.25,10.48,4.51L1438.09,2.7c1.16-1.09,2.69-1.69,4.28-1.69h26.75c5.58,0,8.33,6.79,4.32,10.67l-144.42,139.75c-4.01,3.88-1.26,10.67,4.32,10.67h135.9c5.57,0,8.33,6.76,4.35,10.65Z"/>
    <path class="cls-1" d="M1101.86,167.11l-140.64,147.99c-3.86,4.06-10.71,1.33-10.71-4.28v-132.58c0-5.61-6.85-8.35-10.71-4.28l-134.15,141.16c-3.86,4.07-10.7,1.39-10.71-4.22-.05-29.6-.13-95.94-.14-148.08,0-3.43-2.78-6.2-6.21-6.2h-21.85c-5.55,0-8.31-6.74-4.35-10.64L908.26,2.31c3.92-3.87,10.57-1.09,10.57,4.42v125.86c0,5.54,6.69,8.31,10.6,4.39L1063.77,2.51c3.91-3.92,10.6-1.15,10.6,4.39v143.51c0,3.43,2.78,6.21,6.21,6.21h16.78c5.45,0,8.26,6.53,4.5,10.49Z"/>
    <path class="cls-1" d="M738.17,168.64l-131.81,137.41c-3.87,4.04-10.69,1.3-10.69-4.3v-136.53c0-3.43-2.78-6.21-6.22-6.21h-19.67c-5.53,0-8.3-6.68-4.39-10.6L702.22,11.44c3.91-3.91,10.61-1.14,10.61,4.39v136.09c0,3.43,2.78,6.21,6.21,6.21h14.64c5.47,0,8.27,6.56,4.49,10.51Z"/>
    <path class="cls-1" d="M540.38,172.19l-150.51,135.56c-3.99,3.6-10.36.77-10.36-4.61v-122.28c0-5.43-6.5-8.25-10.46-4.53l-139.63,130.95c-3.96,3.72-10.46.91-10.46-4.53v-133.95c0-5.37-6.33-8.21-10.34-4.64L38.67,315.52c-1.14,1.01-2.61,1.57-4.13,1.57H6.73c-5.7,0-8.39-7.02-4.15-10.83l168.53-151.31L341.36,2.1c3.99-3.59,10.36-.75,10.36,4.62v117.46c0,5.38,6.38,8.22,10.38,4.6L501.88,2.2c3.99-3.61,10.38-.78,10.38,4.6v148.36c0,3.43,2.78,6.21,6.21,6.21h17.75c5.69,0,8.38,7.01,4.16,10.82Z"/>
  </g>
</svg>